# xmcd CD database file
#
# Track frame offsets:
#	150
#	21050
#	40895
#	63027
#	74965
#	96027
#	117090
#	134037
#	151520
#	172060
#	189945
#	205352
#
# Disc length: 2996 seconds
#
# Revision: 2
# Processed by: cddbd v1.5.2PL0 Copyright (c) Steve Scherf et al.
# Submitted via: CDex 1.70beta2
#
DISCID=a50bb20c
DTITLE=Sparks GO GO - NEW OLD STOCK
DYEAR=1999
DGENRE=Rock
TTITLE0=Walking Talking
TTITLE1=Blue Boy
TTITLE2=Route 5
TTITLE3=SLOW DOWN
TTITLE4=鉛の朝
TTITLE5=ルーシーはムーンフェイス
TTITLE6=Anybody,Somebody,Anywhere
TTITLE7=Junkfood Junkie
TTITLE8=Rock On
TTITLE9=Tanger
TTITLE10=Youth Quake
TTITLE11=月旅行
EXTD=YEAR: 1999
EXTT0=
EXTT1=
EXTT2=
EXTT3=
EXTT4=
EXTT5=
EXTT6=
EXTT7=
EXTT8=
EXTT9=
EXTT10=
EXTT11=
PLAYORDER=
